<svg width="21" height="20" viewBox="0 0 21 20" fill="none" xmlns="http://www.w3.org/2000/svg">
<path fill-rule="evenodd" clip-rule="evenodd" d="M7.16675 0.833344C7.62699 0.833344 8.00008 1.20644 8.00008 1.66668V2.50001H13.0001V1.66668C13.0001 1.20644 13.3732 0.833344 13.8334 0.833344C14.2937 0.833344 14.6667 1.20644 14.6667 1.66668V2.50001H15.5001C17.341 2.50001 18.8334 3.99239 18.8334 5.83334V15C18.8334 16.841 17.341 18.3333 15.5001 18.3333H5.50008C3.65913 18.3333 2.16675 16.841 2.16675 15V5.83334C2.16675 3.99239 3.65913 2.50001 5.50008 2.50001H6.33342V1.66668C6.33342 1.20644 6.70651 0.833344 7.16675 0.833344ZM13.0001 4.16668C13.0001 4.62691 13.3732 5.00001 13.8334 5.00001C14.2937 5.00001 14.6667 4.62691 14.6667 4.16668H15.5001C16.4206 4.16668 17.1667 4.91287 17.1667 5.83334V6.25001H3.83341V5.83334C3.83341 4.91287 4.57961 4.16668 5.50008 4.16668H6.33342C6.33342 4.62691 6.70651 5.00001 7.16675 5.00001C7.62699 5.00001 8.00008 4.62691 8.00008 4.16668H13.0001ZM17.1667 7.91668H3.83341V15C3.83341 15.9205 4.57961 16.6667 5.50008 16.6667H15.5001C16.4206 16.6667 17.1667 15.9205 17.1667 15V7.91668Z" fill="#667185"/>
</svg>
