<svg width="21" height="20" viewBox="0 0 21 20" fill="none" xmlns="http://www.w3.org/2000/svg">
<path d="M6.37571 4.69681C6.05028 4.37137 5.52264 4.37137 5.1972 4.69681C4.87177 5.02224 4.87177 5.54988 5.1972 5.87532L9.32199 10.0001L5.1972 14.1249C4.87177 14.4503 4.87177 14.978 5.1972 15.3034C5.52264 15.6288 6.05028 15.6288 6.37571 15.3034L10.5005 11.1786L14.6253 15.3034C14.9507 15.6288 15.4784 15.6288 15.8038 15.3034C16.1292 14.978 16.1292 14.4503 15.8038 14.1249L11.679 10.0001L15.8038 5.87532C16.1292 5.54988 16.1292 5.02224 15.8038 4.69681C15.4784 4.37137 14.9507 4.37137 14.6253 4.69681L10.5005 8.8216L6.37571 4.69681Z" fill="#667185"/>
</svg>
