<svg width="32" height="32" viewBox="0 0 32 32" fill="none" xmlns="http://www.w3.org/2000/svg">
<path fill-rule="evenodd" clip-rule="evenodd" d="M9.33333 1.33331C6.38782 1.33331 4 3.72113 4 6.66665V25.3333C4 28.2788 6.38781 30.6666 9.33333 30.6666H22.6667C25.6122 30.6666 28 28.2788 28 25.3333V12.1148C28 10.8672 27.5626 9.65901 26.7638 8.70053L22.2237 3.25233C21.2104 2.03637 19.7093 1.33331 18.1265 1.33331H9.33333ZM6.66667 6.66665C6.66667 5.19389 7.86057 3.99998 9.33333 3.99998H17.3333V7.99998C17.3333 10.9455 19.7211 13.3333 22.6667 13.3333H25.3333V25.3333C25.3333 26.8061 24.1394 28 22.6667 28H9.33333C7.86057 28 6.66667 26.8061 6.66667 25.3333V6.66665ZM24.9058 10.6666C24.8478 10.577 24.7842 10.4905 24.7153 10.4077L20.1751 4.95949C20.1196 4.89286 20.0611 4.82931 20 4.76897V7.99998C20 9.47274 21.1939 10.6666 22.6667 10.6666H24.9058Z" fill="#344054"/>
<path d="M22.3329 25.04C22.0929 25.04 21.8662 24.96 21.6662 24.7867C20.8796 24.0934 20.4396 23.8 20.2129 23.6667C20.0929 23.76 19.9329 23.88 19.7862 24C18.9062 24.68 18.4129 25.04 17.8796 25.04C17.1462 25.04 16.0262 24.7867 15.3062 23.44L15.0129 23.88C14.5462 24.5734 13.9729 24.9334 13.3329 24.9467C12.3462 24.9334 11.6396 24.2534 10.9729 23.4267C10.5862 23.8534 10.1596 24.2934 9.69291 24.76C9.29291 25.1467 8.66624 25.1467 8.27958 24.76C7.89291 24.3734 7.89291 23.7334 8.27958 23.3467C8.89291 22.7334 9.39958 22.1867 9.82624 21.7067C9.27958 20.6934 8.74624 19.4 8.71958 18.2667C8.70624 17.2534 9.01291 16.3734 9.59958 15.7734C10.0396 15.32 10.6129 15.0667 11.1996 15.0667C12.4262 15.0667 13.6796 15.44 13.6796 18.2534C13.6796 19.3067 13.2129 20.4934 12.2529 21.8534C12.2929 21.9067 12.3329 21.96 12.3729 22.0134C12.8262 22.6134 13.0929 22.84 13.2262 22.9334C13.2529 22.8934 13.2929 22.8534 13.3329 22.7867L14.8129 20.6C15.0529 20.2534 15.4662 20.0934 15.8796 20.1867C16.2796 20.28 16.5862 20.6267 16.6396 21.0267C16.8529 22.7334 17.3862 23.0134 17.7062 23.0534C17.9196 22.92 18.3062 22.6267 18.5462 22.44C19.2796 21.8667 19.6262 21.6134 20.0796 21.6134C20.6529 21.6134 21.3596 21.9067 22.9596 23.32C23.3729 23.68 23.4129 24.32 23.0529 24.7334C22.8529 24.96 22.5729 25.0667 22.3062 25.0667L22.3329 25.04ZM11.5329 17.0134C11.5329 17.0134 11.3462 17.04 11.2262 17.04C11.1996 17.04 11.1329 17.0667 11.0529 17.1467C10.9596 17.24 10.7329 17.5467 10.7462 18.2134C10.7462 18.6667 10.9329 19.2534 11.1729 19.84C11.6129 19.0667 11.7062 18.5467 11.7062 18.2267C11.7062 17.2534 11.5329 17.0267 11.5329 17.0267V17.0134Z" fill="#344054"/>
<path d="M14.8802 10H9.54687C9.00021 10 8.54688 9.54667 8.54688 9C8.54688 8.45333 9.00021 8 9.54687 8H14.8802C15.4269 8 15.8802 8.45333 15.8802 9C15.8802 9.54667 15.4269 10 14.8802 10Z" fill="#344054"/>
</svg>
