<svg width="31" height="32" viewBox="0 0 31 32" fill="none" xmlns="http://www.w3.org/2000/svg">
<path fill-rule="evenodd" clip-rule="evenodd" d="M16.5767 6.3125C16.5767 5.71803 16.0947 5.23611 15.5003 5.23611C14.9058 5.23611 14.4239 5.71803 14.4239 6.3125V6.92698C10.7726 7.44909 7.96555 10.5882 7.96555 14.3842L7.96555 18.6902C7.96555 18.6902 7.96556 18.6901 7.96555 18.6902C7.96544 18.6923 7.96471 18.7067 7.96004 18.735C7.95444 18.7689 7.94449 18.815 7.92807 18.8743C7.89478 18.9945 7.8418 19.1442 7.76778 19.3212C7.61939 19.676 7.41018 20.0845 7.1788 20.4967C6.74379 21.2716 6.52451 22.1951 6.68913 23.0732C6.86273 23.9993 7.45883 24.8069 8.4769 25.1945C9.38635 25.5408 10.5969 25.8575 12.1956 26.046C12.2336 26.0789 12.2786 26.1167 12.3303 26.158C12.4921 26.2874 12.7232 26.4552 13.0153 26.6221C13.595 26.9533 14.4521 27.3021 15.5003 27.3021C16.5484 27.3021 17.4056 26.9533 17.9853 26.6221C18.2774 26.4552 18.5085 26.2874 18.6702 26.158C18.7219 26.1167 18.7669 26.0789 18.8049 26.046C20.4036 25.8575 21.6142 25.5408 22.5236 25.1945C23.5417 24.8069 24.1378 23.9993 24.3114 23.0732C24.476 22.1951 24.2568 21.2716 23.8217 20.4967C23.5904 20.0845 23.3811 19.676 23.2328 19.3212C23.1587 19.1442 23.1058 18.9945 23.0725 18.8743C23.056 18.815 23.0461 18.7689 23.0405 18.735C23.0358 18.7067 23.0351 18.6925 23.035 18.6905C23.035 18.6903 23.035 18.6905 23.035 18.6905L23.035 18.6814V14.3848C23.035 10.5888 20.228 7.44918 16.5767 6.92699V6.3125ZM10.1183 14.3842C10.1183 11.4121 12.5276 9.00348 15.5003 9.00348C18.4728 9.00348 20.8822 11.4125 20.8822 14.3848V18.691C20.8822 19.1893 21.0689 19.7267 21.2467 20.1518C21.4398 20.6135 21.6928 21.1021 21.9445 21.5505C22.1893 21.9865 22.2476 22.3985 22.1955 22.6766C22.1523 22.9067 22.0373 23.0762 21.7576 23.1827C20.6006 23.6232 18.6476 24.0729 15.5003 24.0729C12.353 24.0729 10.3999 23.6232 9.24295 23.1827C8.96324 23.0762 8.8482 22.9067 8.80505 22.6766C8.75292 22.3985 8.81128 21.9865 9.05603 21.5505C9.30773 21.1021 9.56079 20.6135 9.75388 20.1518C9.93162 19.7267 10.1183 19.1893 10.1183 18.691V14.3842Z" fill="#667185"/>
</svg>
