<svg width="20" height="20" viewBox="0 0 20 20" fill="none" xmlns="http://www.w3.org/2000/svg">
<path d="M10.8333 10C10.8333 9.53977 10.4602 9.16667 10 9.16667C9.53977 9.16667 9.16667 9.53977 9.16667 10C9.16667 10.4602 9.53977 10.8333 10 10.8333C10.4602 10.8333 10.8333 10.4602 10.8333 10Z" fill="#667185"/>
<path fill-rule="evenodd" clip-rule="evenodd" d="M4.16667 4.16667H15.8333C17.2141 4.16667 18.3333 5.28596 18.3333 6.66667V13.3333C18.3333 14.714 17.2141 15.8333 15.8333 15.8333H4.16667C2.78596 15.8333 1.66667 14.714 1.66667 13.3333V6.66667C1.66667 5.28596 2.78596 4.16667 4.16667 4.16667ZM4.16667 5.41667C3.70643 5.41667 3.33334 5.78977 3.33334 6.25001C3.33334 6.71024 3.70643 7.08334 4.16667 7.08334H5.83334C6.29358 7.08334 6.66667 6.71024 6.66667 6.25001C6.66667 5.78977 6.29358 5.41667 5.83334 5.41667H4.16667ZM13.3333 6.25001C13.3333 5.78977 13.7064 5.41667 14.1667 5.41667H15.8333C16.2936 5.41667 16.6667 5.78977 16.6667 6.25001C16.6667 6.71024 16.2936 7.08334 15.8333 7.08334H14.1667C13.7064 7.08334 13.3333 6.71024 13.3333 6.25001ZM4.16667 12.9167C3.70643 12.9167 3.33334 13.2898 3.33334 13.75C3.33334 14.2102 3.70643 14.5833 4.16667 14.5833H5.83334C6.29358 14.5833 6.66667 14.2102 6.66667 13.75C6.66667 13.2898 6.29358 12.9167 5.83334 12.9167H4.16667ZM13.3333 13.75C13.3333 13.2898 13.7064 12.9167 14.1667 12.9167H15.8333C16.2936 12.9167 16.6667 13.2898 16.6667 13.75C16.6667 14.2102 16.2936 14.5833 15.8333 14.5833H14.1667C13.7064 14.5833 13.3333 14.2102 13.3333 13.75ZM10 7.50001C11.3807 7.50001 12.5 8.61929 12.5 10C12.5 11.3807 11.3807 12.5 10 12.5C8.61929 12.5 7.50001 11.3807 7.50001 10C7.50001 8.61929 8.61929 7.50001 10 7.50001Z" fill="#667185"/>
</svg>
