<svg width="20" height="20" viewBox="0 0 20 20" fill="none" xmlns="http://www.w3.org/2000/svg">
<path fill-rule="evenodd" clip-rule="evenodd" d="M11.5054 2.29065C10.666 1.47864 9.33392 1.47864 8.49455 2.29065C8.01456 2.75499 7.34714 2.97185 6.68589 2.87832C5.52953 2.71476 4.45183 3.49775 4.25005 4.64806C4.13466 5.30585 3.72218 5.87359 3.13224 6.18659C2.10059 6.73396 1.68894 8.00087 2.20183 9.05009C2.49512 9.65008 2.49512 10.3518 2.20183 10.9518C1.68894 12.001 2.10059 13.268 3.13224 13.8153C3.72218 14.1283 4.13466 14.6961 4.25005 15.3539C4.45183 16.5042 5.52953 17.2872 6.68589 17.1236C7.34714 17.0301 8.01456 17.2469 8.49455 17.7113C9.33392 18.5233 10.666 18.5233 11.5054 17.7113C11.9854 17.2469 12.6528 17.0301 13.3141 17.1236C14.4704 17.2872 15.5481 16.5042 15.7499 15.3539C15.8653 14.6961 16.2778 14.1283 16.8677 13.8153C17.8994 13.268 18.311 12.001 17.7981 10.9518C17.5048 10.3518 17.5048 9.65008 17.7981 9.05009C18.311 8.00087 17.8994 6.73396 16.8677 6.18659C16.2778 5.87359 15.8653 5.30585 15.7499 4.64806C15.5481 3.49775 14.4704 2.71476 13.3141 2.87832C12.6528 2.97185 11.9854 2.75499 11.5054 2.29065ZM9.99998 14.1676C12.3012 14.1676 14.1666 12.3021 14.1666 10.001C14.1666 7.69977 12.3012 5.83429 9.99998 5.83429C7.69879 5.83429 5.83331 7.69977 5.83331 10.001C5.83331 12.3021 7.69879 14.1676 9.99998 14.1676Z" fill="#667185"/>
</svg>
