<svg width="20" height="20" viewBox="0 0 20 20" fill="none" xmlns="http://www.w3.org/2000/svg">
<path fill-rule="evenodd" clip-rule="evenodd" d="M10.8333 1.66666H5.83333C4.45262 1.66666 3.33333 2.78594 3.33333 4.16666V15.8333C3.33333 17.214 4.45262 18.3333 5.83333 18.3333H14.1667C15.5474 18.3333 16.6667 17.214 16.6667 15.8333V8.33332H14.1667C12.3257 8.33332 10.8333 6.84094 10.8333 4.99999V1.66666ZM16.4971 6.66666C16.3997 6.41607 16.2619 6.18095 16.0872 5.97132L13.2496 2.5662C13.0391 2.31361 12.7837 2.10823 12.5 1.95783V4.99999C12.5 5.92046 13.2462 6.66666 14.1667 6.66666H16.4971ZM13.9646 15.65C13.8146 15.65 13.6729 15.6 13.5479 15.4917C13.0562 15.0584 12.7812 14.875 12.6396 14.7917C12.6184 14.8082 12.5952 14.826 12.5708 14.8447L12.5704 14.845C12.5085 14.8926 12.4386 14.9463 12.3729 15C11.8229 15.425 11.5146 15.65 11.1812 15.65C10.7229 15.65 10.0229 15.4917 9.57291 14.65L9.38958 14.925C9.09791 15.3584 8.73958 15.5834 8.33958 15.5917C7.72291 15.5834 7.28124 15.1584 6.86458 14.6417C6.62291 14.9084 6.35625 15.1834 6.06458 15.475C5.81458 15.7167 5.42291 15.7167 5.18124 15.475C4.93958 15.2334 4.93958 14.8334 5.18124 14.5917C5.56458 14.2084 5.88125 13.8667 6.14791 13.5667C5.80624 12.9334 5.47291 12.125 5.45624 11.4167C5.44791 10.7834 5.63958 10.2334 6.00625 9.85836C6.28124 9.57503 6.63958 9.4167 7.00624 9.4167C7.77291 9.4167 8.55624 9.65003 8.55624 11.4084C8.55624 12.0667 8.26458 12.8084 7.66458 13.6584L7.73958 13.7584C8.02291 14.1334 8.18958 14.275 8.27291 14.3334C8.27934 14.3237 8.28702 14.3141 8.29546 14.3035C8.30888 14.2866 8.32423 14.2673 8.33958 14.2417L9.26458 12.875C9.41458 12.6584 9.67291 12.5584 9.93124 12.6167C10.1812 12.675 10.3729 12.8917 10.4062 13.1417C10.5396 14.2084 10.8729 14.3834 11.0729 14.4084C11.2062 14.325 11.4479 14.1417 11.5979 14.025C12.0562 13.6667 12.2729 13.5084 12.5562 13.5084C12.9146 13.5084 13.3562 13.6917 14.3562 14.575C14.6146 14.8 14.6396 15.2 14.4146 15.4584C14.2896 15.6 14.1146 15.6667 13.9479 15.6667L13.9646 15.65ZM7.21458 10.6334C7.21458 10.6334 7.09791 10.65 7.02291 10.65C7.00624 10.65 6.96458 10.6667 6.91458 10.7167C6.85624 10.775 6.71458 10.9667 6.72291 11.3834C6.72291 11.6667 6.83958 12.0334 6.98958 12.4C7.26458 11.9167 7.32291 11.5917 7.32291 11.3917C7.32291 10.7834 7.21458 10.6417 7.21458 10.6417V10.6334ZM5.9733 6.24999H9.30664C9.6483 6.24999 9.93164 5.96666 9.93164 5.62499C9.93164 5.28332 9.6483 4.99999 9.30664 4.99999H5.9733C5.63164 4.99999 5.3483 5.28332 5.3483 5.62499C5.3483 5.96666 5.63164 6.24999 5.9733 6.24999Z" fill="#667185"/>
</svg>
