<svg width="21" height="20" viewBox="0 0 21 20" fill="none" xmlns="http://www.w3.org/2000/svg">
<path fill-rule="evenodd" clip-rule="evenodd" d="M11.4334 1.66665C11.4334 1.20641 11.0603 0.833313 10.6001 0.833313C10.1399 0.833313 9.76676 1.20641 9.76676 1.66665V2.49998C7.46558 2.49998 5.6001 4.36546 5.6001 6.66665C5.6001 8.96783 7.46558 10.8333 9.76676 10.8333V15.8333C8.38605 15.8333 7.26676 14.714 7.26676 13.3333C7.26676 12.8731 6.89367 12.5 6.43343 12.5C5.97319 12.5 5.6001 12.8731 5.6001 13.3333C5.6001 15.6345 7.46558 17.5 9.76676 17.5V18.3333C9.76676 18.7935 10.1399 19.1666 10.6001 19.1666C11.0603 19.1666 11.4334 18.7935 11.4334 18.3333V17.5C13.7346 17.5 15.6001 15.6345 15.6001 13.3333C15.6001 11.0321 13.7346 9.16665 11.4334 9.16665V4.16665C12.8141 4.16665 13.9334 5.28593 13.9334 6.66665C13.9334 7.12688 14.3065 7.49998 14.7668 7.49998C15.227 7.49998 15.6001 7.12688 15.6001 6.66665C15.6001 4.36546 13.7346 2.49998 11.4334 2.49998V1.66665ZM9.76676 4.16665C8.38605 4.16665 7.26676 5.28593 7.26676 6.66665C7.26676 8.04736 8.38605 9.16665 9.76676 9.16665V4.16665ZM11.4334 10.8333V15.8333C12.8141 15.8333 13.9334 14.714 13.9334 13.3333C13.9334 11.9526 12.8141 10.8333 11.4334 10.8333Z" fill="#667185"/>
</svg>
