<svg width="49" height="48" viewBox="0 0 49 48" fill="none" xmlns="http://www.w3.org/2000/svg">
<path d="M24.5 6C28.0601 6 31.5402 7.05568 34.5003 9.03355C37.4604 11.0114 39.7675 13.8226 41.1298 17.1117C42.4922 20.4008 42.8487 24.02 42.1541 27.5116C41.4596 31.0033 39.7453 34.2106 37.2279 36.7279C34.7106 39.2453 31.5033 40.9596 28.0116 41.6541C24.52 42.3487 20.9008 41.9922 17.6117 40.6298C14.3226 39.2675 11.5114 36.9603 9.53355 34.0003C7.55568 31.0402 6.5 27.5601 6.5 24H10.46C10.46 26.7768 11.2834 29.4913 12.8262 31.8002C14.3689 34.1091 16.5617 35.9086 19.1271 36.9713C21.6926 38.0339 24.5156 38.312 27.2391 37.7702C29.9626 37.2285 32.4642 35.8913 34.4278 33.9278C36.3913 31.9642 37.7285 29.4626 38.2702 26.7391C38.812 24.0156 38.5339 21.1926 37.4713 18.6271C36.4086 16.0617 34.6091 13.8689 32.3002 12.3262C29.9913 10.7834 27.2768 9.96 24.5 9.96V6Z" fill="#175CFF"/>
</svg>
