<svg width="224" height="40" viewBox="0 0 224 40" fill="none" xmlns="http://www.w3.org/2000/svg">
<g clip-path="url(#clip0_1_19324)">
<path d="M23.6853 7.99999C25.3648 7.9698 26.7877 8.5397 27.9615 9.71347C29.105 10.857 29.6749 12.2384 29.6749 13.8613V31.9924H24.7723V13.9972C24.7723 13.8386 24.7308 13.6877 24.6515 13.5518C24.5722 13.4159 24.4628 13.3065 24.3269 13.2272C24.1911 13.148 24.0401 13.1065 23.8816 13.1065C23.4249 13.1065 23.1267 13.3254 22.9909 13.7556L18.4996 29.4185C18.2694 30.1733 17.8429 30.7885 17.2126 31.2678C16.5823 31.7471 15.869 31.9887 15.0689 31.9887C14.2687 31.9887 13.5554 31.7471 12.9251 31.2678C12.2948 30.7885 11.8684 30.1695 11.6381 29.4185L7.15819 13.7594C7.02232 13.3254 6.73548 13.1102 6.30145 13.1102C6.04858 13.1102 5.83345 13.197 5.64852 13.3669C5.46358 13.5367 5.373 13.7481 5.373 14.0009V31.9962H0.474121V13.9141C0.474121 12.5517 0.896829 11.2043 1.77621 10.1626C2.9915 8.72086 4.51249 7.99999 6.33542 7.99999C7.20348 7.99999 8.0187 8.17738 8.78486 8.53215C9.55102 8.88693 10.2115 9.38512 10.7739 10.023C11.3324 10.6646 11.7287 11.393 11.9552 12.2158L15.0726 22.874L18.1901 12.2158C18.5977 10.8118 19.428 9.7097 20.6735 8.90202C21.5718 8.32835 22.6248 8.02264 23.6853 7.99999Z" fill="#175CFF"/>
<path d="M46.6701 8H54.8374V12.9366H46.9531C46.5191 12.9366 46.0964 13.0234 45.685 13.1933C45.2736 13.3631 44.9188 13.6122 44.6207 13.9292C44.3225 14.25 44.0961 14.6275 43.9338 15.0615L37.8649 31.9925H32.9283L39.8841 12.6611C40.4049 11.1439 41.3598 9.94748 42.7487 9.06432C43.9187 8.32835 45.2925 8 46.6701 8ZM49.9008 17.9412C49.9008 16.892 50.3348 16.0541 51.2028 15.4389L54.8374 12.9366V31.9925H49.9008V17.9412Z" fill="#175CFF"/>
<path d="M75.2632 8C77.2485 8 78.9544 8.70955 80.3697 10.1249C81.785 11.5402 82.4946 13.2423 82.4946 15.2313C82.4946 17.2203 81.785 18.9225 80.3697 20.3378C78.9544 21.7569 77.2522 22.4627 75.2632 22.4627H65.2541V31.9925H60.3175V8H75.2632ZM75.3991 17.5298C76.086 17.5298 76.6597 17.2656 77.1239 16.741C77.4258 16.3975 77.6221 15.9635 77.6787 15.5106C77.7429 14.9785 77.6447 14.4954 77.3881 14.05C77.1805 13.6952 76.9012 13.4159 76.5465 13.2121C76.1917 13.0046 75.8105 12.9027 75.3991 12.9027H65.2541V22.4325L67.6205 19.0055C68.3074 18.0242 69.2434 17.5336 70.4323 17.5336H75.4029L75.3991 17.5298Z" fill="#175CFF"/>
<path d="M89.8278 17.1222V8.15851H91.3488L94.2436 15.2955L97.1384 8.15851H98.682V17.1222H97.161V14.3633C97.161 12.5592 97.161 12.0346 97.2478 11.3968L94.9682 17.1222H93.5227L91.2544 11.4081C91.3412 11.9478 91.3526 12.7932 91.3526 13.9104V17.1222H89.8316H89.8278Z" fill="#141460"/>
<path d="M100.09 14.0953C100.09 12.1931 101.328 10.8835 103.105 10.8835C104.883 10.8835 106.072 12.0988 106.072 13.9858V14.4387L101.509 14.4501C101.618 15.5182 102.184 16.0579 103.177 16.0579C104 16.0579 104.54 15.7408 104.709 15.1634H106.094C105.838 16.4881 104.732 17.2845 103.151 17.2845C101.347 17.2845 100.086 15.9711 100.086 14.0953H100.09ZM101.55 13.4952H104.592C104.592 12.6611 104.015 12.1101 103.12 12.1101C102.226 12.1101 101.698 12.5894 101.55 13.4952Z" fill="#141460"/>
<path d="M106.921 14.1179C106.921 12.2309 108.023 10.8797 109.85 10.8797C110.695 10.8797 111.443 11.2345 111.824 11.8346V8H113.307V17.1222H111.933L111.835 16.1786C111.469 16.8769 110.684 17.2807 109.763 17.2807C108.008 17.2807 106.917 15.9937 106.917 14.1179H106.921ZM111.812 14.0689C111.812 12.9781 111.137 12.2158 110.095 12.2158C109.053 12.2158 108.416 12.9895 108.416 14.0689C108.416 15.1483 109.053 15.9069 110.095 15.9069C111.137 15.9069 111.812 15.1596 111.812 14.0689Z" fill="#141460"/>
<path d="M114.696 8.94354C114.696 8.44157 115.1 8.04906 115.617 8.04906C116.134 8.04906 116.511 8.44157 116.511 8.94354C116.511 9.4455 116.107 9.84934 115.617 9.84934C115.103 9.84934 114.696 9.4455 114.696 8.94354ZM114.866 11.0646H116.36V17.1222H114.866V11.0646Z" fill="#141460"/>
<path d="M120.584 10.8835C122.24 10.8835 123.369 11.8044 123.527 13.2612H122.033C121.863 12.5743 121.357 12.2195 120.648 12.2195C119.693 12.2195 119.055 12.9442 119.055 14.084C119.055 15.2238 119.644 15.9371 120.599 15.9371C121.346 15.9371 121.874 15.571 122.033 14.9067H123.543C123.358 16.3183 122.18 17.2845 120.599 17.2845C118.761 17.2845 117.557 16.0088 117.557 14.084C117.557 12.1591 118.795 10.8835 120.584 10.8835Z" fill="#141460"/>
<path d="M124.384 15.3936C124.384 14.2765 125.192 13.5782 126.63 13.4688L128.445 13.3329V13.197C128.445 12.3743 127.955 12.0459 127.196 12.0459C126.313 12.0459 125.822 12.412 125.822 13.0499H124.546C124.546 11.7364 125.626 10.8797 127.268 10.8797C128.909 10.8797 129.906 11.7629 129.906 13.4424V17.1222H128.592L128.483 16.2277C128.226 16.8542 127.404 17.2807 126.46 17.2807C125.173 17.2807 124.388 16.5334 124.388 15.3936H124.384ZM128.453 14.669V14.3519L127.188 14.4501C126.256 14.5369 125.901 14.8426 125.901 15.3332C125.901 15.8843 126.267 16.156 126.943 16.156C127.864 16.156 128.453 15.605 128.453 14.6727V14.669Z" fill="#141460"/>
<path d="M131.397 17.1222V8H132.88V17.1222H131.397Z" fill="#141460"/>
<path d="M137.126 17.1222L140.36 8.15851H141.968L145.206 17.1222H143.549L142.825 15.0502H139.477L138.752 17.1222H137.122H137.126ZM139.945 13.7254H142.372L141.342 10.8306C141.27 10.5966 141.183 10.3287 141.157 10.1437C141.119 10.3136 141.047 10.5853 140.96 10.8306L139.941 13.7254H139.945Z" fill="#141460"/>
<path d="M145.489 14.1179C145.489 12.2309 146.591 10.8797 148.418 10.8797C149.264 10.8797 150.011 11.2345 150.392 11.8346V8H151.875V17.1222H150.501L150.403 16.1786C150.037 16.8769 149.252 17.2807 148.331 17.2807C146.576 17.2807 145.486 15.9937 145.486 14.1179H145.489ZM150.381 14.0689C150.381 12.9781 149.705 12.2158 148.663 12.2158C147.622 12.2158 146.984 12.9895 146.984 14.0689C146.984 15.1483 147.622 15.9069 148.663 15.9069C149.705 15.9069 150.381 15.1596 150.381 14.0689Z" fill="#141460"/>
<path d="M152.747 11.0646H154.34L155.393 13.85C155.649 14.5746 155.857 15.1974 155.933 15.5295C156.019 15.1483 156.238 14.5105 156.495 13.85L157.597 11.0646H159.141L156.616 17.1222H155.144L152.74 11.0646H152.747Z" fill="#141460"/>
<path d="M159.443 15.3936C159.443 14.2765 160.25 13.5782 161.688 13.4688L163.504 13.3329V13.197C163.504 12.3743 163.013 12.0459 162.254 12.0459C161.371 12.0459 160.88 12.412 160.88 13.0499H159.605C159.605 11.7364 160.684 10.8797 162.326 10.8797C163.968 10.8797 164.964 11.7629 164.964 13.4424V17.1222H163.651L163.541 16.2277C163.285 16.8542 162.462 17.2807 161.518 17.2807C160.231 17.2807 159.446 16.5334 159.446 15.3936H159.443ZM163.515 14.669V14.3519L162.25 14.4501C161.318 14.5369 160.963 14.8426 160.963 15.3332C160.963 15.8843 161.33 16.156 162.005 16.156C162.926 16.156 163.515 15.605 163.515 14.6727V14.669Z" fill="#141460"/>
<path d="M166.432 17.1222V11.0646H167.817L167.938 11.8497C168.319 11.2382 169.055 10.8797 169.874 10.8797C171.395 10.8797 172.18 11.8232 172.18 13.3933V17.1222H170.686V13.7518C170.686 12.7328 170.184 12.2422 169.41 12.2422C168.489 12.2422 167.927 12.88 167.927 13.8613V17.1222H166.432Z" fill="#141460"/>
<path d="M176.328 10.8835C177.985 10.8835 179.114 11.8044 179.272 13.2612H177.777C177.608 12.5743 177.102 12.2195 176.392 12.2195C175.437 12.2195 174.8 12.9442 174.8 14.084C174.8 15.2238 175.388 15.9371 176.343 15.9371C177.091 15.9371 177.619 15.571 177.777 14.9067H179.287C179.102 16.3183 177.925 17.2845 176.343 17.2845C174.505 17.2845 173.301 16.0088 173.301 14.084C173.301 12.1591 174.539 10.8835 176.328 10.8835Z" fill="#141460"/>
<path d="M180.046 14.0953C180.046 12.1931 181.284 10.8835 183.061 10.8835C184.839 10.8835 186.028 12.0988 186.028 13.9858V14.4387L181.465 14.4501C181.574 15.5182 182.14 16.0579 183.133 16.0579C183.956 16.0579 184.495 15.7408 184.665 15.1634H186.05C185.794 16.4881 184.688 17.2845 183.107 17.2845C181.303 17.2845 180.042 15.9711 180.042 14.0953H180.046ZM181.503 13.4952H184.545C184.545 12.6611 183.967 12.1101 183.073 12.1101C182.178 12.1101 181.65 12.5894 181.503 13.4952Z" fill="#141460"/>
<path d="M186.873 14.1179C186.873 12.2309 187.975 10.8797 189.802 10.8797C190.647 10.8797 191.395 11.2345 191.776 11.8346V8H193.259V17.1222H191.885L191.787 16.1786C191.421 16.8769 190.636 17.2807 189.715 17.2807C187.96 17.2807 186.869 15.9937 186.869 14.1179H186.873ZM191.768 14.0689C191.768 12.9781 191.093 12.2158 190.051 12.2158C189.009 12.2158 188.372 12.9895 188.372 14.0689C188.372 15.1483 189.009 15.9069 190.051 15.9069C191.093 15.9069 191.768 15.1596 191.768 14.0689Z" fill="#141460"/>
<path d="M91.3978 28.7504V31.8415H89.8278V22.8778H93.3717C95.1758 22.8778 96.3382 24.0554 96.3382 25.8066C96.3382 27.5578 95.1607 28.7504 93.3717 28.7504H91.3978ZM91.3978 24.2743V27.3502H93.0396C94.119 27.3502 94.6965 26.7728 94.6965 25.7915C94.6965 24.8102 94.1077 24.2705 93.066 24.2705H91.3978V24.2743Z" fill="#141460"/>
<path d="M97.4667 31.8377V22.7155H98.95V31.8377H97.4667Z" fill="#141460"/>
<path d="M100.252 30.1091C100.252 28.992 101.06 28.2938 102.498 28.1843L104.313 28.0484V27.9126C104.313 27.0898 103.822 26.7614 103.064 26.7614C102.181 26.7614 101.69 27.1275 101.69 27.7654H100.414C100.414 26.452 101.494 25.5952 103.136 25.5952C104.777 25.5952 105.774 26.4784 105.774 28.1579V31.8377H104.46L104.351 30.9432C104.094 31.5697 103.271 31.9962 102.328 31.9962C101.041 31.9962 100.256 31.2489 100.256 30.1091H100.252ZM104.321 29.3845V29.0675L103.056 29.1656C102.124 29.2524 101.769 29.5581 101.769 30.0487C101.769 30.5998 102.135 30.8715 102.811 30.8715C103.732 30.8715 104.321 30.3205 104.321 29.3883V29.3845Z" fill="#141460"/>
<path d="M107.717 31.8377V27.0294H106.551V25.7802H107.717V23.8931H109.212V25.7802H110.39V27.0294H109.212V31.8377H107.717Z" fill="#141460"/>
<path d="M111.763 25.7802V25.0442C111.763 23.4024 112.635 22.7155 113.945 22.7155C114.179 22.7155 114.458 22.7268 114.718 22.7759V24.0516H114.19C113.431 24.0516 113.247 24.4441 113.247 25.0442V25.7802H114.692V27.0294H113.247V31.8377H111.763V27.0294H110.891V25.7802H111.763Z" fill="#141460"/>
<path d="M118.349 25.6103C120.225 25.6103 121.587 26.9086 121.587 28.7995C121.587 30.6904 120.225 31.9887 118.349 31.9887C116.473 31.9887 115.111 30.6904 115.111 28.7995C115.111 26.9086 116.473 25.6103 118.349 25.6103ZM118.349 30.6488C119.38 30.6488 120.089 29.9016 120.089 28.7957C120.089 27.6899 119.38 26.9426 118.349 26.9426C117.319 26.9426 116.609 27.6899 116.609 28.7957C116.609 29.9016 117.319 30.6488 118.349 30.6488Z" fill="#141460"/>
<path d="M126.577 27.1426H126.026C124.947 27.1426 124.271 27.7201 124.271 28.8976V31.8415H122.776V25.7953H124.188L124.275 26.6784C124.531 26.0783 125.109 25.6745 125.916 25.6745C126.124 25.6745 126.332 25.6971 126.577 25.7613V27.1464V27.1426Z" fill="#141460"/>
<path d="M127.596 31.8377V25.7802H128.97L129.091 26.4897C129.396 25.9877 130.011 25.5952 130.88 25.5952C131.8 25.5952 132.438 26.0481 132.755 26.7463C133.061 26.0481 133.774 25.5952 134.691 25.5952C136.163 25.5952 136.971 26.4784 136.971 27.8748V31.8339H135.488V28.2673C135.488 27.3955 135.024 26.9426 134.31 26.9426C133.597 26.9426 133.035 27.4068 133.035 28.4032V31.8377H131.54V28.256C131.54 27.4106 131.087 26.9577 130.374 26.9577C129.66 26.9577 129.087 27.4219 129.087 28.4032V31.8377H127.592H127.596Z" fill="#141460"/>
</g>
<defs>
<clipPath id="clip0_1_19324">
<rect width="192.789" height="24" fill="white" transform="translate(0.474121 8)"/>
</clipPath>
</defs>
</svg>
